<svg xmlns="http://www.w3.org/2000/svg" width="20px" height="20px" viewBox="0 0 48 48"><path fill="none" stroke="#fff" stroke-linecap="round" stroke-linejoin="round" d="M20.028 16.707a1.324 1.324 0 1 0 1.324-1.324h0c-.731 0-1.324.593-1.324 1.324m5.296 0a1.324 1.324 0 1 0 1.324-1.324h0c-.731 0-1.324.593-1.324 1.324m-3.468 8.016a3.31 3.31 0 0 0 4.287 0" stroke-width="1"/><path fill="none" stroke="#fff" stroke-linecap="round" stroke-linejoin="round" d="M14.07 18.038c0 5.485 4.445 9.931 9.93 9.931s9.93-4.446 9.93-9.93S29.486 8.106 24 8.106c-5.484.002-9.929 4.448-9.93 9.931" stroke-width="1"/><path fill="none" stroke="#fff" stroke-linecap="round" stroke-linejoin="round" d="M20.4 8.784a4.966 4.966 0 1 0-5.936 6.48M7.449 36.64c0 3.169 2.226 5.737 4.965 5.737s4.966-2.568 4.966-5.737c0-3.165-2.226-5.737-4.966-5.737S7.45 33.475 7.45 36.64m23.17 0c0 3.169 2.226 5.737 4.966 5.737s4.965-2.568 4.965-5.737c0-3.165-2.226-5.737-4.965-5.737s-4.966 2.572-4.966 5.737" stroke-width="1"/><path fill="none" stroke="#fff" stroke-linecap="round" stroke-linejoin="round" d="M9.71 37.49a2.65 2.65 0 0 0 2.648 2.648m23.559 0a2.65 2.65 0 0 0 2.648-2.648m-19.53-13.568c0 2.235 2.225 4.047 4.965 4.047s4.965-1.812 4.965-4.048c0-2.233-2.225-4.047-4.965-4.047s-4.965 1.814-4.965 4.048m14.501-8.658a4.966 4.966 0 1 0-5.934-6.481" stroke-width="1"/><path fill="none" stroke="#fff" stroke-linecap="round" stroke-linejoin="round" d="M24 23.248s-2.143-.584-2.143-2.071c0-1.023 1.013-1.232 1.646-1.263l.837-.004c.604.004 1.804.154 1.804 1.267c0 1.487-2.144 2.07-2.144 2.07m-10.406 7.821c.747-3.465 3.872-5.556 3.872-5.556m13.154 0s3.086 2.066 3.858 5.491m-17.792-1.111l2.349 4.013a2.13 2.13 0 0 0 2.819.876h0a2.13 2.13 0 0 0 .953-2.86l-.01-.018l-.672-1.314m9.445-.697l-2.51 4.013a2.13 2.13 0 0 1-2.818.876h0a2.13 2.13 0 0 1-.953-2.86l.009-.018l.672-1.314m-9.725 9.981s6.259 4.357 15.51 0M24 23.525v1.987" stroke-width="1"/></svg>